USFL
nRows=137
nColumns=2
inDegrees=yes
endheader
time	med_gas_r	
2.5625	 36.165485	
2.625	 36.130759	
2.6875	 36.136501	
2.75	 36.110947	
2.8125	 36.055646	
2.875	 36.061982	
2.9375	 36.063885	
3	 35.984945	
3.0625	 35.922785	
3.125	 35.936602	
3.1875	 35.860709	
3.25	 35.932831	
3.3125	 35.938838	
3.375	 35.839711	
3.4375	 35.784405	
3.5	 35.773057	
3.5625	 35.760157	
3.625	 35.743516	
3.6875	 35.756458	
3.75	 35.691566	
3.8125	 35.727402	
3.875	 35.676447	
3.9375	 35.735154	
4	 35.717434	
4.0625	 35.725342	
4.125	 35.724453	
4.1875	 35.737587	
4.25	 35.690658	
4.3125	 35.667127	
4.375	 35.628072	
4.4375	 35.605731	
4.5	 35.601816	
4.5625	 35.621792	
4.625	 35.634826	
4.6875	 35.630412	
4.75	 35.642300	
4.8125	 35.548111	
4.875	 35.412238	
4.9375	 35.063196	
5	 34.874366	
5.0625	 33.458272	
5.125	 32.569149	
5.1875	 30.824985	
5.25	 30.019554	
5.3125	 29.544175	
5.375	 29.577199	
5.4375	 29.691307	
5.5	 29.823171	
5.5625	 29.879636	
5.625	 29.920164	
5.6875	 29.696621	
5.75	 29.739737	
5.8125	 29.732290	
5.875	 29.628741	
5.9375	 29.637282	
6	 29.531377	
6.0625	 29.510077	
6.125	 29.458366	
6.1875	 29.342408	
6.25	 29.519376	
6.3125	 29.638248	
6.375	 28.533380	
6.4375	 28.547560	
6.5	 28.583670	
6.5625	 28.312961	
6.625	 28.349753	
6.6875	 28.342544	
6.75	 27.910767	
6.8125	 27.804029	
6.875	 27.581740	
6.9375	 27.460456	
7	 26.949539	
7.0625	 26.696713	
7.125	 26.937507	
7.1875	 26.814078	
7.25	 26.809788	
7.3125	 26.926359	
7.375	 26.968191	
7.4375	 26.923696	
7.5	 26.932261	
7.5625	 27.073573	
7.625	 27.336014	
7.6875	 27.023892	
7.75	 26.779837	
7.8125	 26.779252	
7.875	 26.731242	
7.9375	 26.799390	
8	 26.873165	
8.0625	 26.831751	
8.125	 26.965181	
8.1875	 26.971683	
8.25	 26.981103	
8.3125	 27.280146	
8.375	 27.332858	
8.4375	 27.293458	
8.5	 27.320036	
8.5625	 27.305334	
8.625	 27.286600	
8.6875	 27.240801	
8.75	 27.296927	
8.8125	 27.363802	
8.875	 27.248401	
8.9375	 27.334447	
9	 27.334935	
9.0625	 27.566986	
9.125	 27.669644	
9.1875	 27.653708	
9.25	 27.764474	
9.3125	 27.798184	
9.375	 27.810337	
9.4375	 27.634716	
9.5	 27.666576	
9.5625	 27.744941	
9.625	 27.556311	
9.6875	 27.568596	
9.75	 27.515418	
9.8125	 28.040533	
9.875	 28.098140	
9.9375	 27.849842	
10	 29.663032	
10.0625	 31.161381	
10.125	 33.777611	
10.1875	 35.255439	
10.25	 36.744822	
10.3125	 36.937211	
10.375	 36.918860	
10.4375	 36.855520	
10.5	 36.790390	
10.5625	 36.897897	
10.625	 36.887020	
10.6875	 37.003964	
10.75	 37.115484	
10.8125	 37.124578	
10.875	 37.156555	
10.9375	 37.186513	
11	 37.173256	
11.0625	 37.185666	
